<svg xmlns="http://www.w3.org/2000/svg" xmlns:xlink="http://www.w3.org/1999/xlink" width="376" zoomAndPan="magnify" viewBox="0 0 282 86.999996" height="116" preserveAspectRatio="xMidYMid meet" version="1.0"><defs><g/></defs><path stroke-linecap="butt" transform="matrix(-0.746252, -0.000000000000000091, 0.000000000000000092, -0.75, 281.488311, 7.871494)" fill="none" stroke-linejoin="miter" d="M 0.0000404181 5.000534 L 84.432394 5.000534 " stroke="#a9a5c2" stroke-width="10" stroke-opacity="1" stroke-miterlimit="4"/><g fill="#a9a5c2" fill-opacity="1"><g transform="translate(19.730051, 63.71902)"><g><path d="M 28.667969 -0.683594 C 26.042969 -6.511719 23.207031 -12.285156 20.582031 -18.21875 C 24.785156 -19.742188 28.300781 -23.101562 28.300781 -29.507812 C 28.300781 -41.902344 16.488281 -42.007812 14.125 -42.007812 L 0.523438 -42.007812 C 0.261719 -42.007812 0 -41.742188 0 -41.535156 L 0 -34.390625 L 14.125 -34.390625 C 15.382812 -34.390625 20.320312 -34.128906 20.320312 -29.507812 C 20.320312 -24.886719 15.855469 -24.679688 14.125 -24.679688 L 0 -24.679688 L 0 -0.472656 C 0 -0.261719 0.261719 0 0.523438 0 L 7.402344 0 C 7.71875 0 7.980469 -0.261719 7.980469 -0.472656 L 7.980469 -16.960938 L 12.496094 -16.960938 L 20.164062 -0.316406 C 20.214844 -0.15625 20.53125 0 20.6875 0 L 28.195312 0 C 28.617188 0 28.828125 -0.316406 28.667969 -0.683594 Z M 28.667969 -0.683594 "/></g></g></g><g fill="#a9a5c2" fill-opacity="1"><g transform="translate(55.693513, 63.71902)"><g><path d="M 17.117188 -7.195312 L 12.917969 -7.195312 L 12.917969 -42.007812 L 4.882812 -42.007812 L 4.882812 -7.195312 L 0.578125 -7.195312 C 0.261719 -7.195312 0 -6.984375 0 -6.722656 L 0 -0.472656 C 0 -0.261719 0.261719 0 0.578125 0 L 17.117188 0 C 17.484375 0 17.695312 -0.261719 17.695312 -0.472656 L 17.695312 -6.722656 C 17.695312 -6.984375 17.484375 -7.195312 17.117188 -7.195312 Z M 17.117188 -7.195312 "/></g></g></g><g fill="#a9a5c2" fill-opacity="1"><g transform="translate(80.054497, 63.71902)"><g><path d="M 19.269531 -23.3125 C 16.277344 -24.730469 13.335938 -24.730469 13.074219 -24.730469 C 10.398438 -24.730469 7.824219 -26.304688 7.824219 -29.351562 C 7.824219 -32.710938 10.1875 -34.445312 13.074219 -34.445312 C 15.804688 -34.445312 18.113281 -33.027344 18.21875 -30.035156 C 18.21875 -29.875 18.484375 -29.613281 18.796875 -29.613281 L 25.359375 -29.613281 C 25.730469 -29.613281 25.992188 -29.875 25.9375 -30.035156 C 25.832031 -37.175781 20.269531 -42.007812 13.074219 -42.007812 C 6.351562 -42.007812 0 -37.226562 0 -29.351562 C 0 -24.46875 2.46875 -20.742188 6.824219 -18.746094 C 9.871094 -17.328125 12.707031 -17.328125 13.074219 -17.328125 C 15.4375 -17.222656 18.324219 -15.332031 18.324219 -12.234375 C 18.324219 -9.453125 15.855469 -7.5625 13.074219 -7.5625 C 13.074219 -7.5625 13.074219 -7.5625 13.023438 -7.5625 L 13.023438 0 C 13.074219 0 13.074219 0 13.074219 0 C 19.796875 0 26.097656 -4.359375 26.097656 -12.234375 C 26.097656 -17.171875 23.679688 -21.265625 19.269531 -23.3125 Z M 19.269531 -23.3125 "/></g></g></g><g fill="#a9a5c2" fill-opacity="1"><g transform="translate(113.235466, 63.71902)"><g><path d="M 8.035156 -23.785156 L 8.035156 -41.535156 C 8.035156 -41.742188 7.824219 -42.007812 7.457031 -42.007812 L 0.578125 -42.007812 C 0.261719 -42.007812 0 -41.742188 0 -41.535156 L 0 -23.785156 Z M 31.398438 -42.007812 L 24.519531 -42.007812 C 24.207031 -42.007812 23.945312 -41.742188 23.945312 -41.535156 L 23.945312 -15.699219 L 8.035156 -15.699219 L 8.035156 -15.753906 L 0 -15.753906 L 0 -0.472656 C 0 -0.261719 0.261719 0 0.578125 0 L 7.457031 0 C 7.824219 0 8.035156 -0.261719 8.035156 -0.472656 L 8.035156 -7.875 L 23.945312 -7.875 L 23.945312 -0.472656 C 23.945312 -0.261719 24.207031 0 24.519531 0 L 31.398438 0 C 31.765625 0 31.976562 -0.261719 31.976562 -0.472656 L 31.976562 -41.535156 C 31.976562 -41.742188 31.765625 -42.007812 31.398438 -42.007812 Z M 31.398438 -42.007812 "/></g></g></g><g fill="#a9a5c2" fill-opacity="1"><g transform="translate(152.611429, 63.71902)"><g><path d="M 32.976562 -0.628906 L 17.011719 -41.691406 C 16.855469 -42.109375 16.121094 -42.109375 15.960938 -41.691406 L 0.0507812 -0.628906 C -0.105469 -0.316406 0.105469 0 0.578125 0 L 7.769531 0 C 7.980469 0 8.242188 -0.105469 8.296875 -0.316406 L 16.488281 -23.734375 L 24.785156 -0.316406 C 24.835938 -0.105469 25.097656 0 25.257812 0 L 32.503906 0 C 32.871094 0 33.132812 -0.316406 32.976562 -0.628906 Z M 32.976562 -0.628906 "/></g></g></g><g fill="#a9a5c2" fill-opacity="1"><g transform="translate(193.037394, 63.71902)"><g><path d="M 20.476562 -29.507812 C 20.476562 -24.886719 14.28125 -24.886719 14.28125 -24.886719 L 7.980469 -24.886719 L 7.980469 -34.496094 L 14.28125 -34.496094 C 14.28125 -34.496094 20.476562 -34.550781 20.476562 -29.507812 Z M 28.511719 -29.980469 C 28.511719 -42.320312 14.28125 -42.007812 14.28125 -42.007812 L 0.578125 -42.007812 C 0.261719 -42.007812 0 -41.742188 0 -41.535156 L 0 -17.066406 L 14.28125 -17.066406 C 14.28125 -17.066406 21.054688 -17.378906 21.054688 -12.445312 C 21.054688 -8.402344 16.90625 -7.667969 14.28125 -7.667969 L 8.035156 -7.667969 L 8.035156 0 L 14.28125 0 C 17.117188 0 29.089844 -0.523438 29.089844 -12.234375 C 29.089844 -12.234375 29.351562 -18.746094 22.683594 -21.003906 C 25.886719 -22.316406 28.511719 -25.097656 28.511719 -29.980469 Z M 28.511719 -29.980469 "/></g></g></g><g fill="#a9a5c2" fill-opacity="1"><g transform="translate(229.368354, 63.71902)"><g><path d="M 8.035156 -23.785156 L 8.035156 -41.535156 C 8.035156 -41.742188 7.824219 -42.007812 7.457031 -42.007812 L 0.578125 -42.007812 C 0.261719 -42.007812 0 -41.742188 0 -41.535156 L 0 -23.785156 Z M 31.398438 -42.007812 L 24.519531 -42.007812 C 24.207031 -42.007812 23.945312 -41.742188 23.945312 -41.535156 L 23.945312 -15.699219 L 8.035156 -15.699219 L 8.035156 -15.753906 L 0 -15.753906 L 0 -0.472656 C 0 -0.261719 0.261719 0 0.578125 0 L 7.457031 0 C 7.824219 0 8.035156 -0.261719 8.035156 -0.472656 L 8.035156 -7.875 L 23.945312 -7.875 L 23.945312 -0.472656 C 23.945312 -0.261719 24.207031 0 24.519531 0 L 31.398438 0 C 31.765625 0 31.976562 -0.261719 31.976562 -0.472656 L 31.976562 -41.535156 C 31.976562 -41.742188 31.765625 -42.007812 31.398438 -42.007812 Z M 31.398438 -42.007812 "/></g></g></g><path stroke-linecap="butt" transform="matrix(0.000000000000000046, -0.745878, 0.75, 0.000000000000000046, 273.992882, 64.465174)" fill="none" stroke-linejoin="miter" d="M 0.000442968 4.999075 L 82.464047 4.999075 " stroke="#a9a5c2" stroke-width="10" stroke-opacity="1" stroke-miterlimit="4"/><path stroke-linecap="butt" transform="matrix(0.746252, 0, 0, 0.75, 0.503246, 79.499992)" fill="none" stroke-linejoin="miter" d="M 0.000884113 5.000011 L 84.433238 5.000011 " stroke="#a9a5c2" stroke-width="10" stroke-opacity="1" stroke-miterlimit="4"/><path stroke-linecap="butt" transform="matrix(0.000000000000000046, 0.745878, -0.75, 0.000000000000000046, 7.999401, 22.906312)" fill="none" stroke-linejoin="miter" d="M -0.0000827379 4.999202 L 82.463522 4.999202 " stroke="#a9a5c2" stroke-width="10" stroke-opacity="1" stroke-miterlimit="4"/></svg>